Patient4_TMGait_0pt7_01_left_48_GRF.mot
version=1
nRows=71
nColumns=19
inDegrees=no
endheader
time	F1x	F1y	F1z	M1x	M1y	M1z	F2x	F2y	F2z	M2x	M2y	M2z	EC1x	EC1y	EC1z	EC2x	EC2y	EC2z
55.73	8.3268	-9.4656	0.89059	1.1961	1.6155	-32.636	-36.9373	736.1748	-98.7484	258.4057	114.1197	841.9715	-0.0592	0.0182	-0.0073	-0.0462	0.0165	0.9585
55.7421	5.4925	-5.7355	0.82981	0.56119	0.84001	-21.2786	-38.4915	740.7392	-90.4036	257.7218	108.2972	843.2799	-0.0592	0.0182	-0.0073	-0.0462	0.0165	0.9585
55.7541	3.0966	-2.5608	0.71112	0.024528	0.22552	-11.6349	-39.0143	742.7647	-83.2138	256.2489	102.8111	841.1567	-0.0592	0.0182	-0.0073	-0.0462	0.0165	0.9585
55.7662	1.2137	-0.086794	0.57435	-0.3943	-0.23085	-4.181	-38.4282	742.1482	-77.4768	254.069	97.8601	835.626	-0.0592	0.0182	-0.0073	-0.0462	0.0165	0.9585
55.7783	-0.067684	1.65	0.44042	-0.69075	-0.52044	1.0094	-36.7971	739.3739	-73.2325	251.4075	93.5508	827.3214	-0.0592	0.0182	-0.0073	-0.0462	0.0165	0.9585
55.7904	-0.91369	2.7714	0.32819	-0.88492	-0.69834	4.3223	-34.2847	735.3058	-70.1977	248.5879	89.7558	817.263	-0.0592	0.0182	-0.0073	-0.0462	0.0165	0.9585
55.8024	-1.3599	3.3672	0.23418	-0.9873	-0.776	6.0904	-31.0343	730.8964	-68.0974	245.9403	86.3618	806.5148	-0.0592	0.0182	-0.0073	-0.0462	0.0165	0.9585
55.8145	-1.5938	3.5739	0.18071	-1.0119	-0.82351	6.7839	-27.2015	726.9966	-66.5545	243.7478	83.1489	796.0093	-0.0592	0.0182	-0.0073	-0.0462	0.0165	0.9585
55.8266	-1.66	3.4306	0.15585	-0.95281	-0.85069	6.6338	-22.8916	724.1823	-65.3083	242.1903	79.9783	786.3669	-0.0592	0.0182	-0.0073	-0.0462	0.0165	0.9585
55.8386	-1.6905	2.984	0.17889	-0.80255	-0.91271	5.9049	-18.1959	722.7653	-64.1225	241.3456	76.7082	777.9465	-0.0592	0.0182	-0.0073	-0.0462	0.0165	0.9585
55.8507	-1.6785	2.2026	0.22563	-0.53948	-0.98881	4.6546	-13.1775	722.7158	-62.9037	241.1683	73.3036	770.7577	-0.0592	0.0182	-0.0073	-0.0462	0.0165	0.9585
55.8628	-1.7014	1.0538	0.30842	-0.13953	-1.1026	2.9487	-7.8947	723.7439	-61.6251	241.5166	69.768	764.5673	-0.0592	0.0182	-0.0073	-0.0462	0.0165	0.9585
55.8749	-1.7013	-0.4984	0.39651	0.41349	-1.2042	0.76964	-2.3649	725.3503	-60.336	242.1763	66.1515	758.9287	-0.0592	0.0182	-0.0073	-0.0462	0.0165	0.9585
55.8869	-1.6554	-2.4342	0.48252	1.1151	-1.2685	-1.809	3.3283	726.9633	-59.1402	242.907	62.5618	753.357	-0.0592	0.0182	-0.0073	-0.0462	0.0165	0.9585
55.899	-1.4689	-4.6256	0.51986	1.9142	-1.2134	-4.6372	9.0944	728.0649	-58.1521	243.4885	59.1228	747.4079	-0.0592	0.0182	-0.0073	-0.0462	0.0165	0.9585
55.9111	-1.0411	-6.7681	0.47838	2.6945	-0.96243	-7.3424	14.7328	728.2954	-57.5175	243.7554	56.0258	740.8262	-0.0592	0.0182	-0.0073	-0.0462	0.0165	0.9585
55.9231	-0.22661	-8.2861	0.27952	3.2329	-0.37851	-9.2417	20.0148	727.4682	-57.3261	243.6153	53.4306	733.5035	-0.0592	0.0182	-0.0073	-0.0462	0.0165	0.9585
55.9352	1.1178	-8.2865	-0.13403	3.1851	0.66824	-9.2684	24.6565	725.6291	-57.673	243.0659	51.5273	725.577	-0.0592	0.0182	-0.0073	-0.0462	0.0165	0.9585
55.9473	3.1132	-5.4649	-0.84627	2.0496	2.3281	-5.8411	28.4874	722.9758	-58.5278	242.1754	50.3626	717.2877	-0.0592	0.0182	-0.0073	-0.0462	0.0165	0.9585
55.9594	5.8348	1.8458	-1.8911	-0.81672	4.6765	3.0521	31.4006	719.8108	-59.8363	241.054	49.9402	708.9757	-0.0592	0.0182	-0.0073	-0.0462	0.0165	0.9585
55.9714	9.1693	15.5817	-3.2838	-6.1612	7.6812	19.8194	33.4407	716.3385	-61.4346	239.7911	50.1132	700.8429	-0.0592	0.0182	-0.0073	-0.0462	0.0165	0.9585
55.9835	12.8026	37.6066	-4.9283	-14.7057	11.0987	46.7691	34.6833	712.5554	-63.127	238.4102	50.6882	692.9071	-0.0592	0.0182	-0.0073	-0.0462	0.0165	0.9585
55.9956	15.9964	69.2859	-6.631	-26.963	14.3905	85.6305	35.2742	708.1362	-64.6185	236.835	51.3489	684.8558	-0.0592	0.0182	-0.0073	-0.0462	0.0165	0.9585
56.0076	17.5594	110.56	-7.9739	-42.8943	16.5702	136.3548	35.3719	702.3811	-65.6195	234.8635	51.7776	676.0138	-0.0592	0.0182	-0.0073	-0.0462	0.0165	0.9585
56.0197	15.8384	159.1413	-8.313	-61.5837	16.2118	196.2045	35.1684	694.2767	-65.7993	232.1903	51.6037	665.3707	-0.0592	0.0182	-0.0073	-0.0462	0.0165	0.9585
56.0318	10.0778	210.3449	-6.8216	-81.1816	12.0195	259.4508	34.837	682.7758	-64.9122	228.4849	50.5383	651.8756	-0.0592	0.0182	-0.0073	-0.0462	0.0165	0.9585
56.0439	1.7053	258.1203	-2.6562	-99.3085	3.5262	318.5343	34.526	667.0682	-62.7953	223.4803	48.3782	634.695	-0.0592	0.0182	-0.0073	-0.0462	0.0165	0.9585
56.0559	-6.9668	296.9353	4.2365	-113.8823	-8.3406	366.2999	34.3683	646.6749	-59.5259	217.0006	45.1471	613.3004	-0.0592	0.0182	-0.0073	-0.0462	0.0165	0.9585
56.068	-14.476	325.5155	12.435	-124.4808	-21.2652	400.8882	34.466	621.5726	-55.3523	208.9964	41.0337	587.6307	-0.0592	0.0182	-0.0073	-0.0462	0.0165	0.9585
56.0801	-20.4301	346.4507	20.4802	-132.1839	-33.2918	425.4075	34.9005	592.0246	-50.6558	199.5063	36.357	557.8997	-0.0592	0.0182	-0.0073	-0.0462	0.0165	0.9585
56.0921	-24.7937	363.8708	27.3057	-138.6369	-43.1346	444.9825	35.646	558.4723	-45.7696	188.6308	31.4233	524.5376	-0.0592	0.0182	-0.0073	-0.0462	0.0165	0.9585
56.1042	-27.7391	381.0724	32.1764	-145.156	-49.9867	463.7671	36.5921	521.2635	-40.8771	176.4596	26.4388	487.888	-0.0592	0.0182	-0.0073	-0.0462	0.0165	0.9585
56.1163	-29.4313	399.7672	34.7923	-152.4102	-53.5786	483.8781	37.4472	480.6532	-36.02	163.063	21.5444	448.2617	-0.0592	0.0182	-0.0073	-0.0462	0.0165	0.9585
56.1284	-29.9636	420.3334	35.4208	-160.5074	-54.2857	505.7947	37.8649	436.8289	-31.1848	148.5008	16.8542	405.8806	-0.0592	0.0182	-0.0073	-0.0462	0.0165	0.9585
56.1404	-29.4787	442.5087	34.6722	-169.2752	-52.9364	529.2617	37.4005	390.1449	-26.4136	132.8878	12.5499	361.1759	-0.0592	0.0182	-0.0073	-0.0462	0.0165	0.9585
56.1525	-28.2007	466.072	33.4485	-178.5304	-50.6968	554.0376	35.7217	341.2163	-21.8149	116.4325	8.8377	314.7717	-0.0592	0.0182	-0.0073	-0.0462	0.0165	0.9585
56.1646	-26.3847	491.0494	32.5712	-188.1978	-48.6545	580.1963	32.5843	291.1209	-17.5644	99.5006	5.9443	267.7229	-0.0592	0.0182	-0.0073	-0.0462	0.0165	0.9585
56.1766	-24.3912	517.7003	32.7599	-198.3132	-47.7812	608.0505	28.0857	241.3774	-13.8281	82.6167	3.9795	221.3996	-0.0592	0.0182	-0.0073	-0.0462	0.0165	0.9585
56.1887	-22.5831	546.4438	34.4544	-208.9977	-48.7107	638.0407	22.5548	193.8337	-10.749	66.419	2.9513	177.4588	-0.0592	0.0182	-0.0073	-0.0462	0.0165	0.9585
56.2008	-21.1712	577.685	37.7417	-220.4011	-51.6098	670.6009	16.6178	150.244	-8.3452	51.5258	2.6626	137.4042	-0.0592	0.0182	-0.0073	-0.0462	0.0165	0.9585
56.2129	-20.1989	611.6261	42.3604	-232.6084	-56.189	705.9098	10.9357	111.962	-6.5461	38.4149	2.8247	102.395	-0.0592	0.0182	-0.0073	-0.0462	0.0165	0.9585
56.2249	-19.6541	647.7344	47.8578	-245.4399	-61.9121	743.3034	6.0551	79.6715	-5.18	27.3414	3.1057	72.9516	-0.0592	0.0182	-0.0073	-0.0462	0.0165	0.9585
56.237	-19.451	684.5661	53.7751	-258.3692	-68.2092	781.1301	2.2474	53.5407	-4.0936	18.3717	3.288	49.1839	-0.0592	0.0182	-0.0073	-0.0462	0.0165	0.9585
56.2491	-19.4506	720.0756	59.7808	-270.6364	-74.6221	817.0698	-0.40287	33.2923	-3.1465	11.4181	3.2278	30.7992	-0.0592	0.0182	-0.0073	-0.0462	0.0165	0.9585
56.2611	-19.4858	752.0366	65.5846	-281.4254	-80.7329	848.6368	-1.9763	18.3876	-2.2798	6.2999	2.9015	17.2924	-0.0592	0.0182	-0.0073	-0.0462	0.0165	0.9585
56.2732	-19.3359	778.5033	70.8886	-290.0427	-86.1142	873.6944	-2.6219	8.1549	-1.4951	2.7889	2.3606	8.0263	-0.0592	0.0182	-0.0073	-0.0462	0.0165	0.9585
56.2853	-18.8162	798.1419	75.3668	-296.0401	-90.344	890.8201	-2.6368	1.8011	-0.86361	0.6138	1.7641	2.2721	-0.0592	0.0182	-0.0073	-0.0462	0.0165	0.9585
56.2974	-17.7912	810.3155	78.7706	-299.2413	-93.1117	899.3816	-2.3117	-1.5903	-0.41363	-0.53761	1.2303	-0.80339	-0.0592	0.0182	-0.0073	-0.0462	0.0165	0.9585
56.3094	-16.1683	815.1339	80.9708	-299.7434	-94.2614	899.6095	-1.8403	-2.9187	-0.13037	-0.97459	0.80992	-2.016	-0.0592	0.0182	-0.0073	-0.0462	0.0165	0.9585
56.3215	-13.9234	813.296	81.985	-297.8563	-93.8194	892.3835	-1.3613	-2.9637	0.026674	-0.96764	0.51047	-2.0663	-0.0592	0.0182	-0.0073	-0.0462	0.0165	0.9585
56.3336	-11.1296	805.961	81.9319	-294.0436	-91.9605	879.0658	-0.93487	-2.3153	0.089528	-0.72345	0.32236	-1.4917	-0.0592	0.0182	-0.0073	-0.0462	0.0165	0.9585
56.3456	-7.8993	794.559	80.996	-288.8597	-88.9515	861.307	-0.60184	-1.3787	0.10011	-0.38554	0.21654	-0.64976	-0.0592	0.0182	-0.0073	-0.0462	0.0165	0.9585
56.3577	-4.4023	780.6498	79.3543	-282.8984	-85.0752	840.8877	-0.36512	-0.42209	0.084206	-0.047506	0.16443	0.21526	-0.0592	0.0182	-0.0073	-0.0462	0.0165	0.9585
56.3698	-0.81338	765.7832	77.1997	-276.738	-80.6237	819.5208	-0.2168	0.43086	0.061295	0.24655	0.14596	0.99802	-0.0592	0.0182	-0.0073	-0.0462	0.0165	0.9585
56.3819	2.7294	751.3204	74.6964	-270.8808	-75.8435	798.6847	-0.13185	1.1258	0.038088	0.48135	0.15053	1.65	-0.0592	0.0182	-0.0073	-0.0462	0.0165	0.9585
56.3939	6.1277	738.3061	72.0223	-265.7054	-70.9703	779.4829	-0.10953	1.6735	0.019738	0.66479	0.16905	2.1951	-0.0592	0.0182	-0.0073	-0.0462	0.0165	0.9585
56.406	9.3222	727.3964	69.3083	-261.4445	-66.1748	762.5749	-0.12244	2.0995	-0.0029703	0.80681	0.19791	2.6509	-0.0592	0.0182	-0.0073	-0.0462	0.0165	0.9585
56.4181	12.3202	718.8785	66.6858	-258.1897	-61.5992	748.2162	-0.17253	2.4165	-0.025122	0.91265	0.23106	3.0199	-0.0592	0.0182	-0.0073	-0.0462	0.0165	0.9585
56.4301	15.1776	712.7282	64.2213	-255.9173	-57.2997	736.3155	-0.2443	2.6198	-0.059182	0.97906	0.28043	3.2777	-0.0592	0.0182	-0.0073	-0.0462	0.0165	0.9585
56.4422	17.9851	708.6689	61.9822	-254.5097	-53.3149	726.5263	-0.32809	2.6963	-0.096035	0.99847	0.34164	3.389	-0.0592	0.0182	-0.0073	-0.0462	0.0165	0.9585
56.4543	20.8829	706.2897	60.0021	-253.7972	-49.6339	718.3753	-0.42366	2.5769	-0.14941	0.94512	0.4318	3.2549	-0.0592	0.0182	-0.0073	-0.0462	0.0165	0.9585
56.4664	24.0029	705.1716	58.3337	-253.5974	-46.2606	711.4045	-0.52086	2.1931	-0.21437	0.79153	0.5449	2.7808	-0.0592	0.0182	-0.0073	-0.0462	0.0165	0.9585
56.4784	27.4633	704.9433	57.0237	-253.7405	-43.1877	705.2301	-0.60735	1.4458	-0.30545	0.49901	0.68888	1.848	-0.0592	0.0182	-0.0073	-0.0462	0.0165	0.9585
56.4905	31.3417	705.4038	56.16	-254.1075	-40.4556	699.6776	-0.65846	0.22934	-0.41484	0.028762	0.84374	0.32527	-0.0592	0.0182	-0.0073	-0.0462	0.0165	0.9585
56.5026	35.645	706.5349	55.8429	-254.651	-38.1399	694.7714	-0.6455	-1.5203	-0.54335	-0.64307	0.99262	-1.8657	-0.0592	0.0182	-0.0073	-0.0462	0.0165	0.9585
56.5146	40.2866	708.5526	56.1742	-255.4068	-36.3511	690.7935	-0.52009	-3.809	-0.66536	-1.5149	1.0843	-4.7356	-0.0592	0.0182	-0.0073	-0.0462	0.0165	0.9585
56.5267	45.1323	711.7892	57.2213	-256.4631	-35.1851	688.1485	-0.23304	-6.4923	-0.73425	-2.5289	1.0429	-8.1016	-0.0592	0.0182	-0.0073	-0.0462	0.0165	0.9585
56.5388	49.972	716.5613	58.9889	-257.9159	-34.7037	687.2325	0.28967	-9.1952	-0.68082	-3.5399	0.75618	-11.5001	-0.0592	0.0182	-0.0073	-0.0462	0.0165	0.9585
56.5509	54.5773	723.0344	61.3841	-259.8204	-34.8845	688.2588	1.1039	-11.2306	-0.4143	-4.2847	0.088235	-14.0724	-0.0592	0.0182	-0.0073	-0.0462	0.0165	0.9585
56.5629	58.7062	731.1109	64.2289	-262.1447	-35.6362	691.2088	2.2497	-11.5101	0.17377	-4.3464	-1.1047	-14.4739	-0.0592	0.0182	-0.0073	-0.0462	0.0165	0.9585
56.575	62.1329	740.3404	67.2758	-264.7399	-36.8034	695.701	3.6992	-8.4635	1.1989	-3.1242	-2.9456	-10.7439	-0.0592	0.0182	-0.0073	-0.0462	0.0165	0.9585
